# xmcd
#
# Track frame offsets:
#	150
#	17755
#	38598
#	59493
#	82806
#	101024
#	130693
#	150901
#	167367
#	184070
#	209843
#
# Disc length: 3149 seconds
#
# Revision: 1
# Processed by: cddbd v1.5.2PL0 Copyright (c) Steve Scherf et al.
# Submitted via: audiograbber 1.83.01
#
DISCID=810c4b0b
DTITLE=Exit Ten - Give Me Infinity
DYEAR=2012
DGENRE=Rock
TTITLE0=Life
TTITLE1=Curtain Call
TTITLE2=Suggest A Path
TTITLE3=Eyes Never Lie
TTITLE4=How Will We Tire
TTITLE5=Drama
TTITLE6=The Cursed
TTITLE7=Sunset
TTITLE8=Smoke
TTITLE9=Mountain
TTITLE10=Lion
EXTD=
EXTT0=
EXTT1=
EXTT2=
EXTT3=
EXTT4=
EXTT5=
EXTT6=
EXTT7=
EXTT8=
EXTT9=
EXTT10=
PLAYORDER=
